<svg xmlns="http://www.w3.org/2000/svg" width="251" height="55" viewBox="0 0 251 55">
    <g fill="none" fill-rule="evenodd">
        <path fill="#FFFFFE" d="M27.75 4H14.37c-3.97 0-7.557 1.622-10.16 4.247A14.512 14.512 0 0 0 0 18.5c0 4.007 1.607 7.627 4.21 10.254 2.602 2.625 6.189 4.245 10.159 4.246H27.75c2.346-.004 4.245-1.92 4.249-4.288-.004-2.367-1.903-4.283-4.25-4.287H14.37c-3.243 0-5.87-2.652-5.87-5.925 0-3.272 2.627-5.924 5.87-5.925H27.75V4"/>
        <path fill="#B4B5B4" d="M14.25 22.512A4.257 4.257 0 0 1 10 18.256 4.258 4.258 0 0 1 14.25 14h13.38a14.3 14.3 0 0 1 10.16 4.216A14.352 14.352 0 0 1 42 28.393c0 3.978-1.607 7.57-4.21 10.18a14.318 14.318 0 0 1-10.16 4.216h-4.884V51H14.25V34.275H27.63a5.877 5.877 0 0 0 5.871-5.882 5.876 5.876 0 0 0-5.87-5.881H14.248"/>
    </g>
</svg>