<svg xmlns="http://www.w3.org/2000/svg" width="251" height="55" viewBox="0 0 251 55">
    <g fill="none" fill-rule="evenodd">
        <path fill="#FFFFFE" d="M27.75 4H14.37c-3.97 0-7.557 1.622-10.16 4.247A14.512 14.512 0 0 0 0 18.5c0 4.007 1.607 7.627 4.21 10.254 2.602 2.625 6.189 4.245 10.159 4.246H27.75c2.346-.004 4.245-1.92 4.249-4.288-.004-2.367-1.903-4.283-4.25-4.287H14.37c-3.243 0-5.87-2.652-5.87-5.925 0-3.272 2.627-5.924 5.87-5.925H27.75V4"/>
        <path fill="#B4B5B4" d="M14.25 22.512A4.257 4.257 0 0 1 10 18.256 4.258 4.258 0 0 1 14.25 14h13.38a14.3 14.3 0 0 1 10.16 4.216A14.352 14.352 0 0 1 42 28.393c0 3.978-1.607 7.57-4.21 10.18a14.318 14.318 0 0 1-10.16 4.216h-4.884V51H14.25V34.275H27.63a5.877 5.877 0 0 0 5.871-5.882 5.876 5.876 0 0 0-5.87-5.881H14.248"/>
        <path fill="#FFFFFE" d="M58.139 55h.722V0h-.722zM83.454 23.08c-.19-1.354-1.258-2.07-2.745-2.07-2.287 0-3.163 1.995-3.163 3.99s.876 3.989 3.163 3.989c1.659 0 2.612-.94 2.745-2.484H87C86.81 29.967 84.236 32 80.786 32 76.669 32 74 28.895 74 25s2.669-7 6.786-7c2.935 0 6.118 1.844 6.214 5.08h-3.546M88.437 25.316c.062-1.239.727-2.04 1.684-2.532.957-.474 2.204-.656 3.431-.656 2.557 0 5.032.492 5.032 3.17v4.134c0 .802 0 1.675.416 2.423h-3.556c-.125-.292-.166-.583-.208-.893-.914.839-2.266 1.166-3.555 1.166-2.059 0-3.681-.91-3.681-2.86 0-3.078 3.827-2.841 6.28-3.279.603-.109.936-.291.936-.874 0-.71-.978-.984-1.705-.984-.978 0-1.602.383-1.768 1.185h-3.306zm4.182 4.812c1.848 0 2.464-.902 2.372-3-.547.294-1.55.352-2.394.549-.868.177-1.597.49-1.597 1.294 0 .824.753 1.157 1.619 1.157zM102.899 28.612c0 .473.196.82.5 1.057.287.218.698.327 1.128.327.59 0 1.432-.254 1.432-1.001 0-.729-.949-.875-1.486-1.002-1.915-.492-4.312-.547-4.312-3.097 0-2.276 2.416-2.896 4.24-2.896 2.04 0 4.17.601 4.277 3.06h-2.81c0-.4-.143-.656-.393-.82-.25-.163-.59-.237-.966-.237-.501 0-1.306.055-1.306.711 0 .892 2.04 1.056 3.435 1.366 1.879.383 2.362 1.767 2.362 2.55 0 2.532-2.362 3.37-4.455 3.37-2.201 0-4.456-.747-4.545-3.388h2.899M113.391 27.883c.06 1.294.878 2.15 2.314 2.15.817 0 1.616-.346 1.935-1.038h3.171c-.618 2.185-2.832 3.133-5.146 3.133-3.371 0-5.665-1.858-5.665-5.027 0-2.896 2.533-4.973 5.585-4.973 3.71 0 5.566 2.55 5.405 5.755h-7.599zM117 26.128c-.057-1.095-.834-2-1.915-2-1.137 0-1.895.811-2.085 2h4zM123 18.128h6.246c2.451 0 4.754 1.196 4.754 4.51 0 3.47-1.861 4.823-4.754 4.823h-2.819v4.667H123v-14zm4 7h2.222c1.031 0 1.778-.525 1.778-1.945 0-1.465-.765-2.055-1.778-2.055H127v4zM134.397 25.316c.057-1.239.661-2.04 1.53-2.532.87-.474 2.004-.656 3.12-.656 2.325 0 4.575.492 4.575 3.17v4.134c0 .802 0 1.675.378 2.423h-3.233c-.113-.292-.151-.583-.19-.893-.83.839-2.06 1.166-3.231 1.166-1.871 0-3.346-.91-3.346-2.86 0-3.078 3.478-2.841 5.708-3.279.549-.109.852-.291.852-.874 0-.71-.889-.984-1.551-.984-.889 0-1.456.383-1.607 1.185h-3.005zm3.818 4.812c1.385 0 1.848-.902 1.778-3-.41.294-1.163.352-1.796.549-.65.177-1.197.49-1.197 1.294 0 .824.564 1.157 1.215 1.157zM146 22.188h3.182v1.72h.039c.482-1.246 1.6-1.908 3.009-1.908.25 0 .52.019.77.075v2.93c-.424-.113-.81-.189-1.253-.189-1.62 0-2.468 1.097-2.468 2.326V32H146v-9.812M161 24.097h-2.036v4.505c0 .782.465.955 1.182.955.272 0 .563-.04.854-.04v2.388c-.601.019-1.203.095-1.803.095-2.812 0-3.53-.802-3.53-3.493v-4.41H154v-2.1h1.668V19h3.296v2.997H161v2.1M164.898 28.612c0 .473.197.82.502 1.057.286.218.698.327 1.127.327.59 0 1.43-.254 1.43-1.001 0-.729-.947-.875-1.484-1.002-1.914-.492-4.312-.547-4.312-3.097 0-2.276 2.415-2.896 4.24-2.896 2.041 0 4.17.601 4.278 3.06h-2.81c0-.4-.143-.656-.394-.82-.25-.163-.59-.237-.967-.237-.5 0-1.306.055-1.306.711 0 .892 2.04 1.056 3.437 1.366 1.878.383 2.361 1.767 2.361 2.55 0 2.532-2.361 3.37-4.454 3.37-2.202 0-4.457-.747-4.546-3.388h2.898M183.524 22.347c-.454-2.07-2.176-3.256-4.145-3.256-3.578 0-5.092 2.973-5.092 5.909 0 2.935 1.514 5.909 5.092 5.909 2.498 0 4.088-1.92 4.335-4.31H185c-.359 3.294-2.46 5.401-5.62 5.401-4.26 0-6.38-3.331-6.38-7 0-3.67 2.12-7 6.38-7 2.554 0 5.091 1.524 5.43 4.347h-1.286M195 27.128c0 2.71-1.586 5-4.5 5-2.914 0-4.5-2.29-4.5-5 0-2.711 1.586-5 4.5-5 2.914 0 4.5 2.289 4.5 5zm-8 0c0 2 1.16 4 3.5 4s3.5-2 3.5-4-1.16-4-3.5-4-3.5 2-3.5 4zM197 22.282h1.14v1.639h.059c.647-1.168 1.707-1.921 3.318-1.921 1.334 0 2.533.621 2.906 1.902.607-1.28 1.884-1.902 3.219-1.902 2.218 0 3.358 1.11 3.358 3.409V32h-1.238v-6.535c0-1.6-.629-2.467-2.394-2.467-2.141 0-2.749 1.695-2.749 3.503V32h-1.238v-6.591c.02-1.319-.549-2.411-2.12-2.411-2.14 0-3.005 1.544-3.023 3.578V32H197v-9.718M213 22.419h1.096v1.9h.038c.549-1.358 1.91-2.191 3.48-2.191 2.969 0 4.386 2.462 4.386 5.293 0 2.832-1.417 5.294-4.386 5.294-1.456 0-2.876-.757-3.386-2.192h-.037v5.605H213v-13.71zm4.62.709c-2.78 0-3.62 2.107-3.62 4.5 0 2.189.94 4.5 3.62 4.5 2.4 0 3.38-2.311 3.38-4.5s-.98-4.5-3.38-4.5zM223.414 25.297c.112-2.217 1.713-3.169 3.935-3.169 1.714 0 3.578.512 3.578 3.04v5.018c0 .44.226.697.696.697.132 0 .283-.037.377-.074v.97a3.332 3.332 0 0 1-.773.074c-1.205 0-1.393-.66-1.393-1.648h-.038c-.828 1.227-1.675 1.923-3.54 1.923-1.788 0-3.256-.86-3.256-2.765 0-2.656 2.654-2.748 5.214-3.041.98-.11 1.525-.238 1.525-1.282 0-1.557-1.148-1.942-2.541-1.942-1.468 0-2.56.66-2.598 2.199h-1.186zM230 27.128h-.04c-.163.246-.732.328-1.078.378-2.177.31-4.882.295-4.882 1.95 0 1.033 1.139 1.672 2.34 1.672 1.951 0 3.681-1 3.66-2.655v-1.345zM233 22.282h1.202v1.676h.038c.44-1.167 1.757-1.958 3.15-1.958 2.769 0 3.61 1.43 3.61 3.747V32h-1.204v-6.064c0-1.676-.553-2.938-2.501-2.938-1.909 0-3.055 1.43-3.093 3.333V32H233v-9.718M242 22h1.314l3.334 8.713L249.765 22H251l-4.393 11.782c-.705 1.723-1.116 2.218-2.665 2.218-.49-.02-.746-.02-.942-.099v-1.05c.294.06.568.1.844.1 1.097 0 1.353-.653 1.764-1.604l.43-1.169L242 22"/>
    </g>
</svg>
